<svg xmlns="http://www.w3.org/2000/svg" version="1.1" xmlns:xlink="http://www.w3.org/1999/xlink" xmlns:svgjs="http://svgjs.dev/svgjs" width="1440" height="560" preserveAspectRatio="none" viewBox="0 0 1440 560"><g mask="url(&quot;#SvgjsMask1021&quot;)" fill="none"><rect width="1440" height="560" x="0" y="0" fill="url(&quot;#SvgjsRadialGradient1022&quot;)"></rect><path d="M1560 560L0 560 L0 200.62Q41.63 122.25, 120 163.88Q166.18 138.06, 192 184.24Q312.75 185, 312 305.75Q281.29 155.04, 432 124.33Q541.47 161.8, 504 271.27Q499.88 195.14, 576 191.02Q577.83 120.85, 648 122.68Q767.92 122.61, 768 242.53Q826.78 229.31, 840 288.1Q859.29 235.39, 912 254.69Q964.79 187.48, 1032 240.27Q1093.54 229.81, 1104 291.35Q1150.01 265.37, 1176 311.38Q1178.38 241.75, 1248 244.13Q1274.46 198.59, 1320 225.05Q1406.15 191.2, 1440 277.35Q1492.85 210.2, 1560 263.04z" fill="rgba(77, 77, 77, 1)"></path><path d="M1464 560L0 560 L0 387.28Q49.84 317.12, 120 366.96Q173.08 348.04, 192 401.12Q261.21 398.33, 264 467.54Q309.2 392.74, 384 437.94Q400.92 334.86, 504 351.78Q520.01 295.79, 576 311.8Q644.58 260.38, 696 328.96Q768.81 281.77, 816 354.58Q816.9 283.48, 888 284.38Q913.85 238.23, 960 264.07Q1019.11 251.18, 1032 310.29Q1129.16 335.45, 1104 432.61Q1083.45 292.06, 1224 271.52Q1307.08 234.6, 1344 317.68Q1446.94 300.63, 1464 403.57z" fill="rgba(163, 163, 163, 1)"></path><path d="M1488 560L0 560 L0 561.42Q22.84 464.26, 120 487.1Q147.55 442.65, 192 470.2Q207.24 413.44, 264 428.67Q331.01 375.68, 384 442.69Q522.02 460.72, 504 598.74Q494.88 517.62, 576 508.5Q564.66 425.16, 648 413.82Q777.75 423.58, 768 553.33Q755.52 468.85, 840 456.37Q858.59 402.96, 912 421.54Q980.56 370.1, 1032 438.65Q1115.95 402.61, 1152 486.56Q1194.57 457.13, 1224 499.69Q1279.03 482.72, 1296 537.74Q1327.74 449.49, 1416 481.23Q1419.83 413.06, 1488 416.88z" fill="rgba(255, 255, 255, 1)"></path></g><defs><mask id="SvgjsMask1021"><rect width="1440" height="560" fill="#ffffff"></rect></mask><radialGradient cx="50%" cy="100%" r="912.14" gradientUnits="userSpaceOnUse" id="SvgjsRadialGradient1022"><stop stop-color="#0e2a47" offset="0"></stop><stop stop-color="rgba(0, 0, 0, 1)" offset="1"></stop></radialGradient></defs></svg>