<?xml version="1.0" standalone="no"?>
<svg xmlns:xlink="http://www.w3.org/1999/xlink" id="wave" style="transform:rotate(0deg); transition: 0.3s" viewBox="0 0 1440 490" version="1.1" xmlns="http://www.w3.org/2000/svg"><defs><linearGradient id="sw-gradient-0" x1="0" x2="0" y1="1" y2="0"><stop stop-color="rgba(0, 0, 0, 1)" offset="0%"/><stop stop-color="rgba(148, 163, 184, 1)" offset="100%"/></linearGradient></defs><path style="transform:translate(0, 0px); opacity:1" fill="url(#sw-gradient-0)" d="M0,98L80,147C160,196,320,294,480,277.7C640,261,800,131,960,106.2C1120,82,1280,163,1440,220.5C1600,278,1760,310,1920,277.7C2080,245,2240,147,2400,89.8C2560,33,2720,16,2880,8.2C3040,0,3200,0,3360,49C3520,98,3680,196,3840,261.3C4000,327,4160,359,4320,367.5C4480,376,4640,359,4800,318.5C4960,278,5120,212,5280,187.8C5440,163,5600,180,5760,228.7C5920,278,6080,359,6240,326.7C6400,294,6560,147,6720,138.8C6880,131,7040,261,7200,294C7360,327,7520,261,7680,269.5C7840,278,8000,359,8160,375.7C8320,392,8480,343,8640,285.8C8800,229,8960,163,9120,155.2C9280,147,9440,196,9600,228.7C9760,261,9920,278,10080,261.3C10240,245,10400,196,10560,220.5C10720,245,10880,343,11040,318.5C11200,294,11360,147,11440,73.5L11520,0L11520,490L11440,490C11360,490,11200,490,11040,490C10880,490,10720,490,10560,490C10400,490,10240,490,10080,490C9920,490,9760,490,9600,490C9440,490,9280,490,9120,490C8960,490,8800,490,8640,490C8480,490,8320,490,8160,490C8000,490,7840,490,7680,490C7520,490,7360,490,7200,490C7040,490,6880,490,6720,490C6560,490,6400,490,6240,490C6080,490,5920,490,5760,490C5600,490,5440,490,5280,490C5120,490,4960,490,4800,490C4640,490,4480,490,4320,490C4160,490,4000,490,3840,490C3680,490,3520,490,3360,490C3200,490,3040,490,2880,490C2720,490,2560,490,2400,490C2240,490,2080,490,1920,490C1760,490,1600,490,1440,490C1280,490,1120,490,960,490C800,490,640,490,480,490C320,490,160,490,80,490L0,490Z"/></svg>