<?xml version="1.0" standalone="no"?>
<svg xmlns:xlink="http://www.w3.org/1999/xlink" id="wave" style="transform:rotate(180deg); transition: 0.3s" viewBox="0 0 1440 490" version="1.1" xmlns="http://www.w3.org/2000/svg"><defs><linearGradient id="sw-gradient-0" x1="0" x2="0" y1="1" y2="0"><stop stop-color="rgba(0, 0, 0, 1)" offset="0%"/><stop stop-color="rgba(148, 163, 184, 1)" offset="100%"/></linearGradient></defs><path style="transform:translate(0, 0px); opacity:1" fill="url(#sw-gradient-0)" d="M0,196L48,220.5C96,245,192,294,288,285.8C384,278,480,212,576,155.2C672,98,768,49,864,57.2C960,65,1056,131,1152,171.5C1248,212,1344,229,1440,261.3C1536,294,1632,343,1728,351.2C1824,359,1920,327,2016,269.5C2112,212,2208,131,2304,147C2400,163,2496,278,2592,302.2C2688,327,2784,261,2880,253.2C2976,245,3072,294,3168,285.8C3264,278,3360,212,3456,163.3C3552,114,3648,82,3744,122.5C3840,163,3936,278,4032,343C4128,408,4224,425,4320,432.8C4416,441,4512,441,4608,392C4704,343,4800,245,4896,179.7C4992,114,5088,82,5184,106.2C5280,131,5376,212,5472,204.2C5568,196,5664,98,5760,57.2C5856,16,5952,33,6048,32.7C6144,33,6240,16,6336,32.7C6432,49,6528,98,6624,163.3C6720,229,6816,310,6864,351.2L6912,392L6912,490L6864,490C6816,490,6720,490,6624,490C6528,490,6432,490,6336,490C6240,490,6144,490,6048,490C5952,490,5856,490,5760,490C5664,490,5568,490,5472,490C5376,490,5280,490,5184,490C5088,490,4992,490,4896,490C4800,490,4704,490,4608,490C4512,490,4416,490,4320,490C4224,490,4128,490,4032,490C3936,490,3840,490,3744,490C3648,490,3552,490,3456,490C3360,490,3264,490,3168,490C3072,490,2976,490,2880,490C2784,490,2688,490,2592,490C2496,490,2400,490,2304,490C2208,490,2112,490,2016,490C1920,490,1824,490,1728,490C1632,490,1536,490,1440,490C1344,490,1248,490,1152,490C1056,490,960,490,864,490C768,490,672,490,576,490C480,490,384,490,288,490C192,490,96,490,48,490L0,490Z"/></svg>