<svg xmlns="http://www.w3.org/2000/svg" version="1.1" xmlns:xlink="http://www.w3.org/1999/xlink" xmlns:svgjs="http://svgjs.dev/svgjs" width="1440" height="546" preserveAspectRatio="none" viewBox="0 0 1440 546"><g mask="url(&quot;#SvgjsMask2192&quot;)" fill="none"><rect width="1440" height="546" x="0" y="0" fill="url(&quot;#SvgjsLinearGradient2193&quot;)"></rect><path d="M 0,84 C 72,113.6 216,232 360,232 C 504,232 576,101 720,84 C 864,67 936,139.4 1080,147 C 1224,154.6 1368,127 1440,122L1440 546L0 546z" fill="rgba(53, 66, 86, 1)"></path><path d="M 0,479 C 96,446 288,305.4 480,314 C 672,322.6 768,517.2 960,522 C 1152,526.8 1344,374.8 1440,338L1440 546L0 546z" fill="rgba(255, 255, 255, 1)"></path></g><defs><mask id="SvgjsMask2192"><rect width="1440" height="546" fill="#ffffff"></rect></mask><linearGradient x1="50%" y1="100%" x2="50%" y2="0%" gradientUnits="userSpaceOnUse" id="SvgjsLinearGradient2193"><stop stop-color="rgba(87, 114, 149, 1)" offset="0"></stop><stop stop-color="rgba(0, 0, 0, 1)" offset="0.85"></stop></linearGradient></defs></svg>